<svg width="100" height="100" viewBox="0 0 100 100" fill="none" xmlns="http://www.w3.org/2000/svg">
<g clip-path="url(#clip0_1_2)">
<circle cx="50" cy="50" r="49" fill="#899064" stroke="#364025" stroke-width="2"/>
<path d="M42.2565 29.5948C41.9371 29.1779 41.5488 28.8203 41.1052 28.5353C40.3995 28.0802 39.558 27.8182 38.6553 27.8182C38.4334 27.8182 38.2135 27.8354 37.9993 27.866C37.5403 27.9329 37.1043 28.0687 36.7008 28.2619C36.2131 28.4933 35.7732 28.8127 35.4003 29.1971C35.7713 29.0689 36.1672 28.9982 36.5784 28.9943C36.5898 28.9943 36.6032 28.9943 36.6147 28.9943C37.1349 28.9943 37.6302 29.1014 38.0796 29.2927C38.5405 29.4897 38.9536 29.7765 39.296 30.1322C39.4203 30.2623 39.535 30.4 39.6402 30.5473L39.9232 31.012L40.5333 32.0084L42.3597 34.988L44.0637 37.7687C44.2225 37.7037 44.3793 37.6367 44.5361 37.566C45.2361 37.2523 45.8901 36.8985 46.5002 36.5199L42.7575 30.4115L42.2584 29.5987L42.2565 29.5948Z" fill="#364025"/>
<path d="M46.8636 41.6874C46.7622 41.7409 46.6609 41.7925 46.5595 41.8442L50.4896 48.2567L51.9546 45.4262L48.8984 40.4347C48.2597 40.8899 47.5808 41.3068 46.8636 41.6854V41.6874Z" fill="#364025"/>
<path d="M71.913 38.3539C71.7103 39.5741 71.5095 40.7961 71.3068 42.0163C71.0696 43.4583 70.8305 44.9003 70.5934 46.3442C70.3352 47.9048 70.077 49.4653 69.8189 51.0259C69.5588 52.5999 69.2987 54.1738 69.0386 55.7478C68.7938 57.2299 68.549 58.7121 68.3023 60.1962C68.2832 60.3166 68.2621 60.4371 68.243 60.5557C68.0269 61.86 67.8299 63.1739 67.5947 64.4724C67.3613 65.7576 67.216 67.06 66.9636 68.3432C66.8565 68.8883 66.7283 69.4295 66.5696 69.9612C65.9213 72.1146 64.6227 74.138 62.563 75.1688C62.1269 75.3868 61.6737 75.5609 61.209 75.7024C60.7308 75.8458 60.1437 76.0543 59.6446 76.0543H73.5042C71.1748 75.9529 69.2604 74.0634 69.1208 71.7417C69.0959 71.3248 69.1189 70.9059 69.1686 70.4909C69.2757 69.6322 69.4631 68.7831 69.6047 67.9263C69.7079 67.3067 69.8093 66.6851 69.9126 66.0655C70.1765 64.4629 70.4423 62.8621 70.7062 61.2595C71.0218 59.3451 71.3373 57.4326 71.6548 55.5202C71.9876 53.5006 72.3223 51.4792 72.657 49.4558L73.6113 43.6782C73.879 42.0507 74.1487 40.4232 74.4183 38.7957C74.5446 38.0326 74.6708 37.2676 74.797 36.5046C73.9804 36.3764 73.1485 36.2005 72.3051 35.9806C72.1731 36.7723 72.045 37.5622 71.913 38.3539Z" fill="#364025"/>
<path d="M32.5278 71.0723L36.9857 44.097L37.2362 42.5766L37.5805 40.4921L37.8329 38.9659L38.9307 32.3182L38.619 31.8095L38.3665 31.3964C38.2116 31.1918 38.0261 31.0177 37.8138 30.8781L36.4904 38.8894L36.2418 40.3964L35.9013 42.4504L35.6527 43.9593L31.0647 71.7245L32.5278 71.0723Z" fill="#364025"/>
<path d="M49.1318 36.9674C48.7015 37.2581 48.2482 37.545 47.7739 37.8203C47.0701 38.2296 46.3166 38.614 45.5191 38.9564C45.4178 39.0003 45.3164 39.0424 45.215 39.0845C44.7159 39.2891 44.2091 39.4708 43.7004 39.6276C42.2698 40.0713 40.8068 40.3391 39.3438 40.4423L38.7892 42.4963C40.1413 42.3663 42.2106 42.0297 44.4807 41.1633C44.9645 40.9797 45.456 40.7732 45.9532 40.536C46.7775 40.1459 47.6152 39.6812 48.4394 39.1285C48.8774 38.834 49.3134 38.5146 49.7437 38.1665C51.6868 36.5983 53.4903 34.4716 54.8385 31.5895C54.785 31.668 52.754 34.5156 49.1337 36.9674H49.1318Z" fill="#364025"/>
<path d="M87.3428 27.7321C87.1056 26.7988 86.5892 25.9688 85.8835 25.3473C85.6827 25.1694 85.4704 25.0183 85.2467 24.8825C84.7609 24.5899 84.2235 24.3815 83.667 24.2017C82.0261 23.6739 80.2418 23.4979 78.4594 23.6299C77.2908 23.7179 76.1223 23.9378 74.9749 24.2744C74.929 24.2878 74.885 24.3012 74.8372 24.3165C74.8219 24.3203 74.8066 24.326 74.7932 24.3298C74.7913 24.3298 74.7874 24.3298 74.7836 24.3318C74.0492 24.5536 73.2842 24.8366 72.4925 25.1885C72.4351 25.2115 72.3777 25.2383 72.3204 25.2631C72.3204 25.2631 72.3146 25.265 72.3012 25.2708C72.2917 25.2765 72.2764 25.2822 72.2592 25.2899C72.2515 25.2937 72.2439 25.2975 72.2343 25.2995C70.3027 26.1601 68.4821 27.2655 66.822 28.5793C66.713 28.6654 65.1735 27.7245 64.988 27.6308C64.3301 27.2942 63.6684 26.9633 63.0028 26.6382C61.6201 25.965 60.2164 25.3262 58.7859 24.7448C56.6133 23.8632 54.3298 23.1001 52.0368 22.5321C49.6328 21.9354 46.8636 21.7652 44.3372 21.7423C41.6024 21.7174 38.7872 22.0961 36.1691 23.2034C32.1434 24.9055 28.9897 28.2829 28.5384 32.6108C28.0755 37.042 30.577 40.8 34.444 42.0909L34.9987 40.0369C34.3714 39.8055 33.7823 39.4689 33.2315 38.9984C32.0573 37.9963 31.2426 36.5811 31.0131 34.9995C30.6038 32.1843 32.0305 29.3807 34.3102 27.4701C35.209 26.7166 36.2131 26.0931 37.2707 25.6227C39.5905 24.588 42.1073 24.2572 44.5208 24.3585C46.003 24.4216 47.4584 24.6014 48.8946 24.8825C50.6005 25.2153 52.2663 25.6762 53.8957 26.2174C57.0073 27.2521 60.0098 28.5602 62.89 30.0443C63.064 30.1342 64.4219 30.7289 64.4219 30.7289C63.4198 31.7464 62.4999 32.8479 61.6794 34.0203C59.0785 36.9865 56.2805 40.8516 53.6337 45.8278C53.5438 45.998 53.452 46.1702 53.3621 46.3442C53.1498 46.7515 52.9376 47.1589 52.7272 47.5682C52.4097 48.1802 52.0942 48.7941 51.7786 49.408C51.5568 49.8363 51.3368 50.2628 51.1131 50.6912C51.0595 50.7964 51.006 50.9016 50.9524 51.0049C50.5106 51.0565 50.0536 51.1253 49.5908 51.2152C49.4416 51.2439 49.2924 51.2745 49.1413 51.3089C46.0087 52.0051 42.6351 53.7053 41.0019 57.6545C41.0746 57.5436 43.4498 53.9807 48.2501 52.9996C48.8086 52.8848 49.4033 52.8045 50.0287 52.772C50.1415 52.7643 50.2563 52.7605 50.371 52.7586C51.006 52.7395 51.6715 52.7681 52.3734 52.8523C52.5838 52.8752 52.7979 52.9058 53.0141 52.9422C53.0198 52.9422 53.0236 52.9422 53.0294 52.9441C53.3755 52.9996 53.6203 53.0455 53.9206 53.0799C53.9779 53.0875 54.0391 53.0933 54.1022 53.1009C53.2149 54.6022 52.3504 56.7155 51.8455 59.412C51.8455 59.412 52.2892 58.2454 53.0408 56.704C53.7924 55.1606 54.7161 53.69 55.789 52.3245C56.2021 51.7985 56.6229 51.2688 56.8772 50.9685C57.0494 50.7639 57.2043 50.5899 57.3305 50.4483C57.4911 50.2705 57.6135 50.1423 57.6824 50.0735C57.6919 50.062 57.7034 50.0525 57.7111 50.0448C57.7321 50.0238 57.7417 50.0123 57.7417 50.0123C58.5239 49.2224 59.4055 48.5072 60.3101 47.9258C60.8628 47.5701 61.469 47.3176 62.0963 47.2029C62.4272 47.1436 62.7733 47.1168 63.0813 47.2144C63.328 47.2928 63.6187 47.484 63.655 47.7575C63.7028 48.1017 63.4676 48.4058 63.24 48.6659C62.9799 48.9643 62.672 49.2205 62.3411 49.4366C61.1937 50.1882 59.7995 50.5382 58.4952 50.762C57.8621 51.46 57.1928 52.3455 56.5578 53.1392C57.4739 53.0703 58.6654 52.9097 59.5623 52.6285C60.989 52.181 62.3373 51.4313 63.4332 50.3585C63.8061 49.9932 64.1503 49.5916 64.3894 49.1345C64.5749 48.7788 64.6667 48.4097 64.6801 48.052C64.7126 47.0709 64.1312 46.1855 63.1291 45.9273C63.0927 45.9177 63.0526 45.9082 63.0162 45.9005C62.6949 45.8355 62.083 45.8317 61.7464 45.8871C61.121 45.9885 60.5243 46.2811 59.9601 46.61C59.1454 47.092 58.3709 47.6561 57.6728 48.3045C57.2769 48.6717 56.9021 49.0599 56.5464 49.4672C56.3417 49.7025 56.1448 49.9415 55.9535 50.1844C55.8904 50.2667 55.4391 50.959 55.3817 50.959C55.309 50.9532 55.2306 50.9456 55.1465 50.9379C55.1503 50.9322 55.1522 50.9284 55.156 50.9226L55.1407 50.936C54.7181 50.9016 54.1539 50.8691 53.4922 50.8672C53.6452 50.6052 53.8077 50.3278 53.9779 50.0391C54.108 49.8172 54.2457 49.5877 54.3872 49.3544C54.567 49.0561 54.7563 48.7501 54.9533 48.4326C55.6858 47.2507 56.5349 45.9426 57.4835 44.5694V44.5656C59.285 41.9647 61.4404 39.1323 63.8615 36.5027C63.8615 36.5027 63.8622 36.502 63.8635 36.5007C63.873 36.4893 63.8845 36.4797 63.8941 36.4682C63.9074 36.4549 63.9208 36.4396 63.9323 36.4281C64.1388 36.2043 64.3473 35.9806 64.5577 35.7606C64.5615 35.7568 64.5653 35.7511 64.5711 35.7472C65.4527 34.8235 66.3707 33.9304 67.3135 33.087C67.3327 33.0698 67.348 33.0545 67.3671 33.0392C67.4589 32.957 67.5526 32.8766 67.6463 32.7963C67.8299 32.6376 68.0116 32.4846 68.1914 32.3335C69.0462 31.6221 69.8475 31.0158 70.5647 30.509C71.5305 29.8263 72.3414 29.3252 72.9209 28.9886C72.9553 28.9676 72.9878 28.9484 73.0222 28.9293C73.0528 28.9102 73.0853 28.893 73.1179 28.8739C73.1485 28.8566 73.1791 28.8394 73.2078 28.8222C73.2613 28.7916 73.3168 28.7629 73.3703 28.7323C73.3971 28.717 73.4239 28.7036 73.4506 28.6883C73.5061 28.6597 73.5615 28.6291 73.6189 28.5985C73.6342 28.5908 73.6495 28.5832 73.6667 28.5736C73.6916 28.5602 73.7165 28.5468 73.7413 28.5334C73.7757 28.5162 73.8102 28.4971 73.8446 28.4799C73.858 28.4741 73.8695 28.4665 73.8828 28.4608C73.8867 28.4608 73.8905 28.4569 73.8943 28.455C73.8943 28.455 73.8962 28.455 73.8981 28.455C75.0361 27.8794 76.216 27.4166 77.4209 27.1354C78.4211 26.904 79.4328 26.8294 80.4369 26.8084C81.4677 26.7874 82.5272 26.8409 83.4834 27.1488C83.4853 27.1488 83.4872 27.1488 83.4891 27.1507C83.493 27.1507 83.4949 27.1507 83.4987 27.1526C83.5006 27.1526 83.5025 27.1526 83.5064 27.1526C83.7473 27.231 83.973 27.3267 84.1757 27.4395C84.9369 27.91 85.3882 28.7878 85.283 29.7918C85.1625 30.9508 84.3345 31.9414 83.2711 32.3335C83.2711 32.3335 83.2711 32.3335 83.2673 32.3335C83.1678 32.3794 81.2133 33.2381 77.9258 32.8919C77.7804 32.8766 77.6294 32.8594 77.4783 32.8384C77.0709 32.7829 76.6444 32.7102 76.1988 32.6165C74.9423 32.3469 73.5424 31.9032 72.0201 31.2013C71.1365 31.7942 70.2989 32.431 69.5435 33.0545L69.5511 33.0583C70.2989 33.4599 71.1308 33.7525 71.9474 34.0241C72.0048 34.0432 72.0641 34.0624 72.1215 34.0815C72.5326 34.2173 72.9515 34.3416 73.3799 34.4582C74.1716 34.6724 74.9863 34.8541 75.8144 34.988C76.3098 35.0683 76.807 35.1314 77.3119 35.1773C78.7902 35.3112 80.2934 35.2825 81.7679 35.0339C83.1372 34.8044 84.5238 34.2708 85.5909 33.3089C87.2031 31.8554 87.8247 29.6388 87.3389 27.7245L87.3428 27.7321Z" fill="#364025"/>
<path d="M51.4191 54.2733C51.2278 54.2637 51.0404 54.258 50.8511 54.258C50.3672 54.258 49.9063 54.2886 49.4684 54.344C48.6001 55.9562 47.7051 57.557 46.7565 59.1252C46.0297 60.3281 45.2743 61.5119 44.4749 62.6728C41.2926 67.2952 37.3433 71.1201 32.0649 73.132C31.9884 73.1607 31.9139 73.1894 31.8393 73.2162C31.5142 73.3367 31.1852 73.4495 30.8563 73.5547C30.3093 73.7287 29.7585 73.8836 29.2039 74.0137C28.7334 74.1265 28.2611 74.2222 27.7868 74.3025C27.6108 74.3331 27.433 74.3598 27.257 74.3847C26.9051 74.4344 26.5532 74.4746 26.2013 74.5033C23.6788 74.706 21.2308 74.3101 19.2495 72.8758C17.2109 71.3994 15.8855 69.091 15.6235 66.4977C15.5547 65.8226 15.5585 65.136 15.6312 64.4476C16.0347 60.5939 18.7752 57.1209 22.319 55.3366C23.631 54.6768 25.1208 54.2312 26.4595 54.5544C28.9572 55.1587 30.25 58.081 29.3779 60.5786C28.9648 61.7625 28.196 62.8411 27.2723 63.7227C25.8705 65.0576 24.1034 65.9584 22.3936 66.775C25.117 66.3428 27.7237 64.5757 29.3072 62.231C29.443 62.0302 29.5673 61.8237 29.682 61.6114C29.682 61.6114 29.682 61.6114 29.682 61.6095C30.2385 60.5844 30.5598 59.4293 30.5713 58.3143C30.5751 57.8668 30.5292 57.4307 30.4298 57.0081C30.3705 56.7556 30.294 56.5108 30.2003 56.2718C29.3703 54.1413 27.3297 52.6572 24.941 52.6132C23.4856 52.5865 22.0092 53.0741 20.6514 53.7607C16.4879 55.8663 13.3783 59.959 12.6611 64.4361C11.701 70.4355 15.1205 75.5934 20.5557 77.3796C22.0379 77.8673 23.6214 78.1159 25.2298 78.1236C25.3732 78.1236 25.5148 78.1236 25.6582 78.1197C26.012 78.1102 26.3677 78.093 26.7196 78.0624C27.7485 77.9782 28.7717 77.8042 29.7834 77.5537C33.746 76.5687 37.5097 74.3751 40.5869 71.5256C44.3831 68.0105 47.2977 63.6367 49.6347 59.1233C50.4533 57.5455 51.0901 55.895 51.8704 54.3077C51.8551 54.3058 51.836 54.3039 51.8207 54.3039C51.6887 54.2924 51.5568 54.2828 51.4267 54.2771L51.4191 54.2733Z" fill="#364025"/>
</g>
<defs>
<clipPath id="clip0_1_2">
<rect width="100" height="100" fill="white"/>
</clipPath>
</defs>
</svg>
